<svg xmlns="http://www.w3.org/2000/svg" width="19.632" height="19.632" viewBox="0 0 19.632 19.632">
  <g id="Group_157" data-name="Group 157" transform="translate(0.125 0.125)">
    <path id="Path_498" data-name="Path 498" d="M9.691,0a9.691,9.691,0,1,0,9.691,9.691A9.7,9.7,0,0,0,9.691,0Zm0,18.574a8.883,8.883,0,1,1,8.883-8.883A8.893,8.893,0,0,1,9.691,18.574Z" fill="#211d70" stroke="#211d70" stroke-width="0.25"/>
    <path id="Path_499" data-name="Path 499" d="M175.8,128.118a.4.4,0,0,0-.571,0l-4.442,4.442a.4.4,0,0,0,0,.571l4.442,4.442A.4.4,0,1,0,175.8,137l-4.156-4.156,4.156-4.156A.4.4,0,0,0,175.8,128.118Z" transform="translate(-164.206 -123.154)" fill="#211d70" stroke="#211d70" stroke-width="0.25"/>
  </g>
</svg>
