<svg xmlns="http://www.w3.org/2000/svg" width="1010.631" height="962.554" viewBox="0 0 1010.631 962.554">
  <g id="Group_114" data-name="Group 114" transform="translate(158.802 -36.41)">
    <path id="Path_448" data-name="Path 448" d="M388.825,20c249.793,0,422.729,298.021,422.729,538.018S682.96,859.545,433.167,859.545,40,715.244,40,475.246,139.032,20,388.825,20Z" transform="matrix(-0.259, 0.966, -0.966, -0.259, 881.501, 220.24)" fill="#6c63ff" opacity="0.03"/>
    <path id="Path_449" data-name="Path 449" d="M281.562,20C454.545,20,574.3,226.381,574.3,392.579S485.252,601.388,312.27,601.388,40,501.458,40,335.259,108.58,20,281.562,20Z" transform="translate(855.104 858.682) rotate(171)" fill="#6c63ff" opacity="0.01"/>
    <g id="undraw_online_payments_luau" transform="translate(140 248)">
      <path id="Path_358" data-name="Path 358" d="M193.411,560.851l-3.43-13.527a175.641,175.641,0,0,0-18.636-6.686l-.433,6.287L169.157,540c-7.854-2.243-13.2-3.231-13.2-3.231s7.217,27.444,22.354,48.425l17.638,3.1-13.7,1.976a71.064,71.064,0,0,0,6.129,6.5c22.02,20.439,46.546,29.817,54.781,20.946s-2.941-32.633-24.961-53.072c-6.826-6.336-15.4-11.421-23.986-15.423Z" transform="translate(-155.96 -308.944)" fill="#e6e6e6"/>
      <path id="Path_359" data-name="Path 359" d="M250.564,529.189l4.056-13.353a175.661,175.661,0,0,0-12.5-15.356l-3.62,5.158,2.077-6.837c-5.564-5.979-9.627-9.587-9.627-9.587s-8.008,27.224-5.895,53.009l13.5,11.769L225.8,548.6a71.07,71.07,0,0,0,1.889,8.729c8.285,28.879,24.433,49.585,36.068,46.247s14.35-29.455,6.065-58.334c-2.568-8.953-7.281-17.738-12.561-25.6Z" transform="translate(-180.494 -291.973)" fill="#e6e6e6"/>
      <rect id="Rectangle_713" data-name="Rectangle 713" width="571.082" height="1.441" transform="translate(0.051 313.613)" fill="#3f3d56"/>
      <path id="Path_360" data-name="Path 360" d="M287.956,434.949s-4.447,53.474-5.4,64.932a81.487,81.487,0,0,1-4.774,21.007,19.754,19.754,0,0,0-1.91,7.639v48.7s-3.819,0-2.865,3.82,1.91,10.5,1.91,10.5h14.323a2.957,2.957,0,0,1,1.91-3.819c2.865-.955,0-8.594,0-8.594l15.278-57.292L329.343,474.1s13.368,42.969,16.233,47.743c0,0,10.5,53.473,12.413,58.247s2.865,4.774,1.91,6.684-.955,3.82,0,4.774,19.1,0,19.1,0l-4.774-67.8-8.594-81.164L321.7,429.221Z" transform="translate(-197.678 -270.562)" fill="#2f2e41"/>
      <path id="Path_361" data-name="Path 361" d="M278.859,664.809s-4.774-17.188-12.413-3.819-7.639,18.143-7.639,18.143-12.413,18.142,4.774,16.233,13.368-10.5,13.368-10.5,6.684-3.819,6.684-6.684S278.859,664.809,278.859,664.809Z" transform="translate(-191.118 -351.461)" fill="#2f2e41"/>
      <path id="Path_362" data-name="Path 362" d="M410.009,661.839s4.774-17.188,12.413-3.819,7.639,18.143,7.639,18.143,12.413,18.143-4.774,16.233-13.368-10.5-13.368-10.5-6.684-3.819-6.684-6.684S410.009,661.839,410.009,661.839Z" transform="translate(-244.924 -350.401)" fill="#2f2e41"/>
      <path id="Path_363" data-name="Path 363" d="M340.141,237.686s1.91,12.413-3.819,15.278,12.413,13.368,17.188,13.368,13.368-9.549,13.368-9.549S362.1,242.46,363.057,239.6Z" transform="translate(-219.934 -202.205)" fill="#a0616a"/>
      <circle id="Ellipse_20" data-name="Ellipse 20" cx="20.052" cy="20.052" r="20.052" transform="translate(110.658 4.925)" fill="#a0616a"/>
      <path id="Path_364" data-name="Path 364" d="M375.378,276.19l-23.871-14.463s-13.582,15.418-28.276-1.77l-25.2,6.684,3.82,64.931s-5.729,25.781-3.82,30.556-4.774,6.684-2.865,7.639,0,7.639,0,7.639,37.24,19.1,78.3,4.774l-3.82-12.413a10.02,10.02,0,0,0-1.91-9.549s3.82-5.729-.955-10.5c0,0,1.91-8.594-2.865-12.413l-.955-13.368,2.865-6.684Z" transform="translate(-205.519 -210.153)" fill="#cfcce0"/>
      <path id="Path_365" data-name="Path 365" d="M337.215,198.181s-2.391,5.174,7.172,3.1c0,0,3.586,2.069,3.586-1.035,0,0,4.781,5.174,5.977,2.069s3.586,1.035,3.586,1.035l2.391-5.174,2.391,3.1h8.367s2.391-20.694-26.3-18.625-14.575,34.858-14.575,34.858.231-5.886,2.622-2.781S337.215,198.181,337.215,198.181Z" transform="translate(-216.767 -182.515)" fill="#2f2e41"/>
      <path id="Path_366" data-name="Path 366" d="M423.493,344.589l.955,20.052s3.819,37.24-3.819,53.473v8.594s-1.91,21.962-11.458,21.007,2.865-31.511,2.865-31.511l-1.91-42.014-1.91-23.872Z" transform="translate(-245.04 -240.358)" fill="#a0616a"/>
      <path id="Path_367" data-name="Path 367" d="M398.981,285.824l9.525-1.548A46.505,46.505,0,0,1,421.9,308.741c2.865,15.278,3.819,18.143,3.819,18.143L402.8,332.613l-12.413-23.872Z" transform="translate(-239.625 -218.833)" fill="#cfcce0"/>
      <rect id="Rectangle_714" data-name="Rectangle 714" width="150.688" height="74.855" transform="translate(118.343 56.094)" fill="#fff"/>
      <path id="Path_368" data-name="Path 368" d="M359.839,275.591c-3.871-2.328-8.539-2.15-10.314-1.972.676,1.65,2.7,5.858,6.575,8.187s8.542,2.151,10.314,1.974C365.738,282.131,363.71,277.921,359.839,275.591Z" transform="translate(-225.041 -214.995)" fill="#5ccae8"/>
      <path id="Path_369" data-name="Path 369" d="M377.4,348.571H353.2a5.444,5.444,0,0,0,0,10.888h24.2a5.444,5.444,0,1,0,0-10.888Z" transform="translate(-224.412 -241.779)" fill="#5ccae8"/>
      <path id="Path_370" data-name="Path 370" d="M482.269,259.215H346.609a12.017,12.017,0,0,0-12.017,12.017v66.1a12.017,12.017,0,0,0,12.017,12.017h135.66a12.017,12.017,0,0,0,12.017-12.017v-66.1a12.017,12.017,0,0,0-12.017-12.017Zm-139.017,8.2c.268-.048,6.62-1.129,11.88,2.036s7.281,9.284,7.364,9.543l.213.66-.683.121a18.119,18.119,0,0,1-2.944.216,17.529,17.529,0,0,1-8.937-2.252c-5.26-3.164-7.28-9.283-7.364-9.542l-.213-.66ZM372.7,328.779H348.5a6.654,6.654,0,0,1,0-13.308h24.2a6.654,6.654,0,0,1,0,13.308Zm110.092-1.21a7.28,7.28,0,0,1-7.259,7.259H457.387a7.28,7.28,0,0,1-7.259-7.259V316.68a7.28,7.28,0,0,1,7.259-7.259h18.147a7.28,7.28,0,0,1,7.259,7.259Z" transform="translate(-219.712 -209.888)" fill="#5ccae8"/>
      <path id="Path_371" data-name="Path 371" d="M528.928,362.209h-7.864a2.117,2.117,0,1,0,0,4.234h7.864a2.117,2.117,0,0,0,0-4.234Zm0,3.025h-7.864a.907.907,0,1,1,0-1.815h7.864a.907.907,0,0,1,0,1.815Z" transform="translate(-285.506 -246.646)" fill="#5ccae8"/>
      <path id="Path_372" data-name="Path 372" d="M551.5,362.209h-7.864a2.117,2.117,0,1,0,0,4.234H551.5a2.117,2.117,0,1,0,0-4.234Zm0,3.025h-7.864a.907.907,0,1,1,0-1.815H551.5a.907.907,0,0,1,0,1.815Z" transform="translate(-293.563 -246.646)" fill="#5ccae8"/>
      <path id="Path_373" data-name="Path 373" d="M528.928,353.744h-7.864a2.117,2.117,0,1,0,0,4.234h7.864a2.117,2.117,0,0,0,0-4.234Zm0,3.025h-7.864a.907.907,0,1,1,0-1.815h7.864a.907.907,0,0,1,0,1.815Z" transform="translate(-285.506 -243.625)" fill="#5ccae8"/>
      <path id="Path_374" data-name="Path 374" d="M551.5,353.744h-7.864a2.117,2.117,0,1,0,0,4.234H551.5a2.117,2.117,0,1,0,0-4.234Zm0,3.025h-7.864a.907.907,0,1,1,0-1.815H551.5a.907.907,0,1,1,0,1.815Z" transform="translate(-293.563 -243.625)" fill="#5ccae8"/>
      <path id="Path_375" data-name="Path 375" d="M528.928,345.279h-7.864a2.117,2.117,0,1,0,0,4.234h7.864a2.117,2.117,0,0,0,0-4.234Zm0,3.025h-7.864a.907.907,0,1,1,0-1.815h7.864a.907.907,0,0,1,0,1.815Z" transform="translate(-285.506 -240.604)" fill="#5ccae8"/>
      <path id="Path_376" data-name="Path 376" d="M551.5,345.279h-7.864a2.117,2.117,0,1,0,0,4.234H551.5a2.117,2.117,0,1,0,0-4.234Zm0,3.025h-7.864a.907.907,0,1,1,0-1.815H551.5a.907.907,0,0,1,0,1.815Z" transform="translate(-293.563 -240.604)" fill="#5ccae8"/>
      <path id="Path_377" data-name="Path 377" d="M275.707,313.448s-8.594,36.285,1.91,36.285,35.33-41.059,35.33-41.059,25.782-13.368,15.278-18.143-23.872,7.639-23.872,7.639l-15.425,21.415-.808-10.912Z" transform="translate(-197.515 -220.675)" fill="#a0616a"/>
      <path id="Path_378" data-name="Path 378" d="M295.477,276.08l-5.729-5.729s-11.458,6.684-12.413,13.368-5.729,27.691-5.729,27.691l17.665,1.432L295,304.248Z" transform="translate(-197.233 -213.863)" fill="#cfcce0"/>
      <path id="Path_379" data-name="Path 379" d="M727.416,244.068c-.719-2.124-9.74-9.344-4.212-10.558l4.533,6.044,20.841-20.841,2.1,2.1Z" transform="translate(-357.767 -195.434)" fill="#5ccae8"/>
      <path id="Path_380" data-name="Path 380" d="M727.416,354.262c-.719-2.124-9.74-9.344-4.212-10.558l4.533,6.044,20.841-20.841,2.1,2.1Z" transform="translate(-357.767 -234.761)" fill="#5ccae8"/>
      <path id="Path_381" data-name="Path 381" d="M727.416,466.03c-.719-2.124-9.74-9.344-4.212-10.558l4.533,6.044,20.841-20.841,2.1,2.1Z" transform="translate(-357.767 -274.65)" fill="#5ccae8"/>
      <circle id="Ellipse_21" data-name="Ellipse 21" cx="6.431" cy="6.431" r="6.431" transform="translate(426.345 33.585)" fill="#3f3d56"/>
      <rect id="Rectangle_715" data-name="Rectangle 715" width="103.541" height="1.286" transform="translate(456.892 39.373)" fill="#3f3d56"/>
      <circle id="Ellipse_22" data-name="Ellipse 22" cx="6.431" cy="6.431" r="6.431" transform="translate(426.345 104.452)" fill="#3f3d56"/>
      <rect id="Rectangle_716" data-name="Rectangle 716" width="103.541" height="1.286" transform="translate(456.892 110.24)" fill="#3f3d56"/>
      <circle id="Ellipse_23" data-name="Ellipse 23" cx="6.431" cy="6.431" r="6.431" transform="translate(426.345 176.331)" fill="#3f3d56"/>
      <rect id="Rectangle_717" data-name="Rectangle 717" width="103.541" height="1.286" transform="translate(456.892 182.119)" fill="#3f3d56"/>
      <path id="Path_382" data-name="Path 382" d="M582.2,294.284H550.04v-32.8h21.866v1.286H551.326V293h29.583V278.206H582.2Z" transform="translate(-196.304 -93.321)" fill="#3f3d56"/>
      <path id="Path_383" data-name="Path 383" d="M582.2,182.284H550.04v-32.8h21.866v1.286H551.326V181h29.583V166.206H582.2Z" transform="translate(-196.304 -53.35)" fill="#3f3d56"/>
      <path id="Path_384" data-name="Path 384" d="M582.2,68.284H550.04v-32.8h21.866v1.286H551.326V67h29.583V52.206H582.2Z" transform="translate(-196.304 -12.664)" fill="#3f3d56"/>
    </g>
  </g>
</svg>
