<svg xmlns="http://www.w3.org/2000/svg" width="1010.631" height="962.554" viewBox="0 0 1010.631 962.554">
  <g id="Group_113" data-name="Group 113" transform="translate(158.802 -26.41)">
    <path id="Path_448" data-name="Path 448" d="M388.825,20c249.793,0,422.729,298.021,422.729,538.018S682.96,859.545,433.167,859.545,40,715.244,40,475.246,139.032,20,388.825,20Z" transform="matrix(-0.259, 0.966, -0.966, -0.259, 881.501, 210.24)" fill="#6c63ff" opacity="0.03"/>
    <path id="Path_449" data-name="Path 449" d="M281.562,20C454.545,20,574.3,226.381,574.3,392.579S485.252,601.388,312.27,601.388,40,501.458,40,335.259,108.58,20,281.562,20Z" transform="translate(855.104 858.682) rotate(171)" fill="#6c63ff" opacity="0.01"/>
    <g id="undraw_profile_6l1l" transform="translate(150 231.276)">
      <line id="Line_5" data-name="Line 5" x2="84.373" transform="translate(0 376.735)" fill="none" stroke="#3f3d56" stroke-miterlimit="10" stroke-width="1"/>
      <rect id="Rectangle_713" data-name="Rectangle 713" width="374.596" height="253.627" rx="19.398" transform="translate(123.51 64.91)" fill="#f2f2f2"/>
      <rect id="Rectangle_714" data-name="Rectangle 714" width="374.596" height="253.627" rx="19.398" transform="translate(112.074 48.9)" fill="none" stroke="#3f3d56" stroke-miterlimit="10" stroke-width="1"/>
      <line id="Line_6" data-name="Line 6" x2="374.596" transform="translate(112.074 73.216)" fill="none" stroke="#3f3d56" stroke-miterlimit="10" stroke-width="1"/>
      <rect id="Rectangle_715" data-name="Rectangle 715" width="102.162" height="15.756" rx="7.093" transform="translate(335.967 130.223)" fill="#5ccae8" opacity="0.3"/>
      <rect id="Rectangle_716" data-name="Rectangle 716" width="141.299" height="12.707" rx="6.353" transform="translate(316.399 173.935)" fill="#5ccae8" opacity="0.3"/>
      <rect id="Rectangle_717" data-name="Rectangle 717" width="141.299" height="12.707" rx="6.353" transform="translate(316.399 208.497)" fill="#5ccae8" opacity="0.3"/>
      <rect id="Rectangle_718" data-name="Rectangle 718" width="141.299" height="12.707" rx="6.353" transform="translate(316.399 243.059)" fill="#5ccae8" opacity="0.3"/>
      <rect id="Rectangle_719" data-name="Rectangle 719" width="102.162" height="15.756" rx="7.093" transform="translate(341.05 125.14)" fill="none" stroke="#3f3d56" stroke-miterlimit="10" stroke-width="1"/>
      <rect id="Rectangle_720" data-name="Rectangle 720" width="141.299" height="12.707" rx="6.353" transform="translate(321.481 168.852)" fill="none" stroke="#3f3d56" stroke-miterlimit="10" stroke-width="1"/>
      <rect id="Rectangle_721" data-name="Rectangle 721" width="141.299" height="12.707" rx="6.353" transform="translate(321.481 203.414)" fill="none" stroke="#3f3d56" stroke-miterlimit="10" stroke-width="1"/>
      <rect id="Rectangle_722" data-name="Rectangle 722" width="141.299" height="12.707" rx="6.353" transform="translate(321.481 237.977)" fill="none" stroke="#3f3d56" stroke-miterlimit="10" stroke-width="1"/>
      <circle id="Ellipse_20" data-name="Ellipse 20" cx="7.624" cy="7.624" r="7.624" transform="translate(132.913 56.524)" fill="#5ccae8" opacity="0.3"/>
      <circle id="Ellipse_21" data-name="Ellipse 21" cx="7.624" cy="7.624" r="7.624" transform="translate(154.26 56.524)" fill="#5ccae8" opacity="0.3"/>
      <circle id="Ellipse_22" data-name="Ellipse 22" cx="7.624" cy="7.624" r="7.624" transform="translate(175.608 56.524)" fill="#5ccae8" opacity="0.3"/>
      <circle id="Ellipse_23" data-name="Ellipse 23" cx="7.624" cy="7.624" r="7.624" transform="translate(135.962 53.474)" fill="none" stroke="#3f3d56" stroke-miterlimit="10" stroke-width="1"/>
      <circle id="Ellipse_24" data-name="Ellipse 24" cx="7.624" cy="7.624" r="7.624" transform="translate(157.31 53.474)" fill="none" stroke="#3f3d56" stroke-miterlimit="10" stroke-width="1"/>
      <circle id="Ellipse_25" data-name="Ellipse 25" cx="7.624" cy="7.624" r="7.624" transform="translate(178.657 53.474)" fill="none" stroke="#3f3d56" stroke-miterlimit="10" stroke-width="1"/>
      <path id="Path_358" data-name="Path 358" d="M519,604.525a75.784,75.784,0,0,1-1.186-19.5s-6.454-28.355-11.533-31l0,0c-.078.1-2.542,3.331-2.855,13.329a41.109,41.109,0,0,1-3.914,16.822s1.164,12.66.5,20.345Z" transform="translate(-288.573 -312.672)" fill="#5ccae8"/>
      <path id="Path_359" data-name="Path 359" d="M505.217,298.379H388.083A12.082,12.082,0,0,0,376,310.462V466.733a12.082,12.082,0,0,0,12.083,12.082h41.1c-1.372-5.692-3.079-14.583-1.351-20.764v0c.081-.288.166-.573.262-.849a32.272,32.272,0,0,0,1.165-12.378,25.723,25.723,0,0,0,0-10.792c-1.27-5.924-2.158-11.744-2.158-11.744s-.7-7.829-.089-12.628c.013-.105.029-.205.044-.308l-.337-.077s1.8-8.146,2.433-13.331c.15-1.224.347-2.775.561-4.429a10.65,10.65,0,0,1-1.724-.437c-5.713-2.01-7.512-20.208-7.512-20.208V365.1s-1.9-8.834,4.761-12.749a77.507,77.507,0,0,1,9.162-4.872c.049-.035.1-.067.146-.105a5.622,5.622,0,0,0,1.672-2.152q.013-.218.006-.433c-.108-2.067-1.547-3.947-2.913-5.587l-3.494-4.2a4.1,4.1,0,0,1-.9-1.456,3.358,3.358,0,0,1-.1-.917q0-.171,0-.342.028-1.565.085-3.129c.033-.911.262-2.06,1.154-2.247.464-.1,1.078.072,1.323-.333a.8.8,0,0,0,.059-.539c0,.013,0,.028-.008.041l-.009-.051a11.4,11.4,0,0,1-.331-2.229,2.971,2.971,0,0,1,.143-1c.517-1.512,2.3-2.133,3.869-2.418s3.338-.531,4.325-1.788a13.7,13.7,0,0,1,.858-1.207,3.37,3.37,0,0,1,1.609-.812,8.894,8.894,0,0,1,5.848.519,5.153,5.153,0,0,0,2.359.762c.867-.055,1.607-.665,2.463-.813a3.5,3.5,0,0,1,3.384,2.022,5.007,5.007,0,0,1,.627,2.553,3.514,3.514,0,0,1-.9,2.41c-.595.631-1.482,1.064-1.729,1.9-.1.338-.077.7-.166,1.044-.011.043-.029.083-.044.124.016.021.034.041.05.063a10.791,10.791,0,0,1-5.252,16.783c0,.107-.008.214-.008.322a4.662,4.662,0,0,0,1.443,3.591l9.427,3.866s5.675-.688,7.723,7.781a14.653,14.653,0,0,1,.351,4.3,12.823,12.823,0,0,0,1.554,6.435c2.328,4.655,1.8,15.341-2.962,16.4-4.51,1-6.264.581-6.437.534l-.01.187c.074,2.005.788,19.3,3.379,21.391.716.579.58.969-.008,1.233v0s0,.111.016.311c.078,1.265.478,6.081,2.212,8.822,2.011,3.174,1.8,21.478,1.8,21.478l1.374,10.792s-.846,6.665,0,7.829c.481.66,1.063,10.879,1.477,19.6h35.34A12.082,12.082,0,0,0,517.3,466.733V310.462A12.082,12.082,0,0,0,505.217,298.379Z" transform="translate(-227.839 -186.962)" fill="#5ccae8"/>
      <rect id="Rectangle_723" data-name="Rectangle 723" width="141.299" height="180.436" rx="23.772" transform="translate(135.962 97.694)" fill="none" stroke="#3f3d56" stroke-miterlimit="10" stroke-width="1"/>
      <path id="Path_360" data-name="Path 360" d="M179.513,400.188s-4.739-1.4-5.756.123,1.386,12.579,1.386,12.579l10.443.635-3.644-9.2Z" transform="translate(-128.267 -236.736)" fill="#2f2e41"/>
      <path id="Path_361" data-name="Path 361" d="M105.731,579.347s9.5,20.861,2.184,20.205-10.157-20.205-10.157-20.205Z" transform="translate(-91.019 -325.122)" fill="#a0616a"/>
      <path id="Path_362" data-name="Path 362" d="M234.51,573.2s-4.168,22.541,2.773,20.133,4.963-22.063,4.963-22.063Z" transform="translate(-157.654 -321.152)" fill="#a0616a"/>
      <path id="Path_363" data-name="Path 363" d="M161.482,386.768s-.109,10.485,3.932,11.031-2.294,6.116-2.294,6.116l-7.208,1.42-10.376-.765-4.587-5.9s8.082-3.823,4.587-15.727Z" transform="translate(-112.258 -228.546)" fill="#a0616a"/>
      <path id="Path_364" data-name="Path 364" d="M161.482,386.768s-.109,10.485,3.932,11.031-2.294,6.116-2.294,6.116l-7.208,1.42-10.376-.765-4.587-5.9s8.082-3.823,4.587-15.727Z" transform="translate(-112.258 -228.546)" opacity="0.1"/>
      <path id="Path_365" data-name="Path 365" d="M172.511,564.931s5.133,11.031,1.092,45.653c0,0,1.2,12.232.218,14.526s-9.065,33.421-9.065,33.421-10.376,2.294-11.8-4.587c0,0,1.42-9.83,1.311-11.359s2.294-18.239,2.294-18.239l-4.915-32.329-3.713,29.161s0,8.41-1.2,10.266,0,39.209,0,39.209,3.386,5.679-1.747,5.788-9.72-.109-10.157-3.713-.655-7.208-1.747-9.393-2.512-27.2-2.184-35.933-7.208-53.626-4.806-58.322S172.511,564.931,172.511,564.931Z" transform="translate(-104.72 -318.024)" fill="#2f2e41"/>
      <circle id="Ellipse_26" data-name="Ellipse 26" cx="13.106" cy="13.106" r="13.106" transform="translate(30.548 135.942)" fill="#a0616a"/>
      <path id="Path_366" data-name="Path 366" d="M138.051,410.725s7.973,5.9,19.55,1.2c0,0,3.823-1.857,3.495-4.7s7.973,22.827,7.973,22.827l8.41,44.67-.437,18.239s-3.713-1.857-15.29,2.294-30.472-4.7-30.472-4.7l.655-46.854.655-27.3,1.747-6.007S135.211,408.759,138.051,410.725Z" transform="translate(-107.503 -240.379)" fill="#f2f2f2"/>
      <path id="Path_367" data-name="Path 367" d="M182.063,399.884s1.929-.313,3.786,2.635,6.225,4.806,6.225,4.806,10.594.655,12.123,6.335,5.352,13.434,7.208,27.741,5.57,37.134,6.116,38.991-.765,7.536.764,9.284-10.813,1.747-10.813,1.747-1.092-8.956-1.857-8.956-.546,6.007.218,10.376-5.57,0-5.57,0-4.915-19.987-9.611-38.008-7.427-27.96-6.553-32,3.277-15.618,1.529-16.71S182.063,399.884,182.063,399.884Z" transform="translate(-132.475 -236.87)" fill="#2f2e41"/>
      <path id="Path_368" data-name="Path 368" d="M120.825,399.874a118.973,118.973,0,0,0-10.062,6.686c-7.208,5.133-12.123,9.065-12.123,9.065s-2.84,2.184-4.587,15.181-5.679,46.636-4.15,50.9,2.075,6.772,1.529,9.283,11.468,2.4,11.686,1.857-.328-10.485.218-10.7,3.495,5.9,4.041,11.031,6.881,9.174,8.3,9.174,8.737-29.6,8.847-49.8-2.4-37.243-4.259-39.646S120.825,399.874,120.825,399.874Z" transform="translate(-86.986 -236.87)" fill="#2f2e41"/>
      <path id="Path_369" data-name="Path 369" d="M179.467,739.156s.874-2.4,3.932-1.638,5.133-1.966,5.133-1.966,1.638-.218.546,1.857-1.966,3.495-1.966,3.495,6.553,14.963,2.294,18.567a9.133,9.133,0,0,1-9.174,1.42s-4.806-3.386-4.587-12.342c0,0-.218-2.84-2.84-7.427s-4.587-11.577-1.42-12.888a17.16,17.16,0,0,1,3.983-1.359s-1.482,6.779,2.346,9.148Z" transform="translate(-126.42 -397.666)" fill="#3f3d56"/>
      <path id="Path_370" data-name="Path 370" d="M145.819,778.677s-2.621-4.915,1.747-5.461,9.065-.874,8.847,1.42-.765,5.789-.765,5.789l.765,2.512s.218,6.225.983,6.99,4.915,7.318-3.932,7.318-11.468-.983-10.7-3.058.983-12.342.983-12.342Z" transform="translate(-113.087 -420.258)" fill="#3f3d56"/>
      <path id="Path_371" data-name="Path 371" d="M144.857,342.219s6.116,1.638,9.284,2.294,2.84-1.2,2.84-1.2,4.15.546,3.932.109,1.747-2.73-.546-5.352-1.638-4.587-1.638-4.587h-1.966l-.546-.765h-3.058s-2.294-.874-8.3,0-14.2,1.092-14.854,4.7-4.041,8.082-2.84,10.157,8.082,10.594,8.737,14.2,3.715,4.4,3.605,2.148-3.168-10.121-.547-10.448S146.059,346.479,144.857,342.219Z" transform="translate(-105.353 -203.656)" fill="#2f2e41"/>
      <path id="Path_372" data-name="Path 372" d="M1008.793,86.584a11.681,11.681,0,0,0-10.069,7.04c-2.518,6.086.724,13.235,5.59,17.673s11.118,6.975,16.8,10.309c7.629,4.479,14.484,10.7,18.3,18.676s4.223,17.866-.264,25.49c-4.165,7.076-11.737,11.312-18.96,15.217" transform="translate(-533.621 -82.816)" fill="none" stroke="#3f3d56" stroke-miterlimit="10" stroke-width="1"/>
      <ellipse id="Ellipse_27" data-name="Ellipse 27" cx="9" cy="4" rx="9" ry="4" transform="translate(472.975 -0.276)" fill="#5ccae8"/>
      <ellipse id="Ellipse_28" data-name="Ellipse 28" cx="9" cy="4" rx="9" ry="4" transform="translate(479.975 28.724)" fill="#5ccae8"/>
      <ellipse id="Ellipse_29" data-name="Ellipse 29" cx="9" cy="5" rx="9" ry="5" transform="translate(463.975 32.724)" fill="#5ccae8"/>
      <ellipse id="Ellipse_30" data-name="Ellipse 30" cx="8" cy="4.5" rx="8" ry="4.5" transform="translate(489.975 56.724)" fill="#5ccae8"/>
      <ellipse id="Ellipse_31" data-name="Ellipse 31" cx="9.5" cy="4.5" rx="9.5" ry="4.5" transform="translate(505.975 56.724)" fill="#5ccae8"/>
    </g>
  </g>
</svg>
