<svg id="phone-line" xmlns="http://www.w3.org/2000/svg" width="24" height="24" viewBox="0 0 24 24">
  <g id="mail-line_1_" data-name="mail-line (1)">
    <path id="Path_450" data-name="Path 450" d="M0,0H24V24H0Z" fill="none"/>
    <path id="Path_451" data-name="Path 451" d="M3,3H21a1,1,0,0,1,1,1V20a1,1,0,0,1-1,1H3a1,1,0,0,1-1-1V4A1,1,0,0,1,3,3ZM20,7.238l-7.928,7.1L4,7.216V19H20ZM4.511,5l7.55,6.662L19.5,5Z" fill="#797979"/>
  </g>
  <path id="Path_329" data-name="Path 329" d="M0,0H24V24H0Z" fill="none"/>
</svg>
