<svg xmlns="http://www.w3.org/2000/svg" width="18.249" height="18.906" viewBox="0 0 18.249 18.906">
  <g id="event" transform="translate(-7.504 0.3)">
    <g id="Group_123" data-name="Group 123" transform="translate(7.804)">
      <g id="Group_122" data-name="Group 122" transform="translate(0)">
        <path id="Path_468" data-name="Path 468" d="M23.886,1.986q-.056,0-.112,0H22.362V.772A.857.857,0,0,0,21.413,0h-1.3a.76.76,0,0,0-.838.772V1.985H13.981V.772A.76.76,0,0,0,13.143,0h-1.3a.857.857,0,0,0-.948.772V1.985H9.481A1.632,1.632,0,0,0,7.8,3.571q0,.056,0,.112V16.431a1.8,1.8,0,0,0,1.676,1.875H23.773a1.8,1.8,0,0,0,1.676-1.875V3.683A1.632,1.632,0,0,0,23.886,1.986ZM20.112.882H21.48V3.308H20.112Zm-8.271,0H13.1V3.308H11.841V.882ZM24.567,16.431a.916.916,0,0,1-.794.992H9.481a.916.916,0,0,1-.794-.992V7.058h15.88Zm0-12.748V6.176H8.687V3.683a.75.75,0,0,1,.794-.816h1.412v.485a.908.908,0,0,0,.948.838h1.3a.816.816,0,0,0,.838-.793q0-.022,0-.045V2.867h5.293v.485a.816.816,0,0,0,.793.838h1.346a.908.908,0,0,0,.948-.838V2.867h1.412a.75.75,0,0,1,.794.816Z" transform="translate(-7.804)" fill="#fff" stroke="#fff" stroke-width="0.6"/>
        <path id="Path_469" data-name="Path 469" d="M119.367,199.082l-.4,2.206a.441.441,0,0,0,.64.463l1.985-1.037,1.985,1.037.2.044a.419.419,0,0,0,.265-.088.441.441,0,0,0,.176-.419l-.4-2.206,1.61-1.544a.485.485,0,0,0,.11-.463.463.463,0,0,0-.353-.287l-2.206-.331-.992-2.007a.441.441,0,0,0-.794,0l-.992,2.007-2.206.331a.463.463,0,0,0-.353.287.485.485,0,0,0,.11.463Zm1.213-1.786a.4.4,0,0,0,.309-.243l.706-1.412.706,1.412a.4.4,0,0,0,.309.243l1.566.221L123.05,198.6a.463.463,0,0,0-.132.4l.265,1.566-1.389-.75-.2-.044-.2.044-1.389.75.265-1.566a.463.463,0,0,0-.132-.4l-1.125-1.081Z" transform="translate(-112.992 -186.003)" fill="#fff" stroke="#fff" stroke-width="0.5"/>
      </g>
    </g>
  </g>
</svg>
