<svg xmlns="http://www.w3.org/2000/svg" width="35.729" height="35.729" viewBox="0 0 35.729 35.729">
  <g id="Group_259" data-name="Group 259" transform="translate(-817 -482)">
    <g id="facebook-box-line" transform="translate(817 482)">
      <path id="Path_508" data-name="Path 508" d="M0,0H35.729V35.729H0Z" fill="none"/>
      <path id="Path_509" data-name="Path 509" d="M19.376,26.819h7.444V5.977H5.977V26.819H16.4V19.376H13.421V16.4H16.4V13.936a6.5,6.5,0,0,1,.6-3.44,4.058,4.058,0,0,1,1.691-1.69A5.9,5.9,0,0,1,21.2,8.239a9.613,9.613,0,0,1,1.9.119v2.829h-.746a5.4,5.4,0,0,0-2.266.244,1.082,1.082,0,0,0-.467.467c-.179.336-.244.67-.244,2.037V16.4H23.1l-.744,2.977H19.376ZM4.489,3H28.308A1.489,1.489,0,0,1,29.8,4.489V28.308A1.489,1.489,0,0,1,28.308,29.8H4.489A1.489,1.489,0,0,1,3,28.308V4.489A1.489,1.489,0,0,1,4.489,3Z" transform="translate(1.466 1.466)" fill="#86c3e5"/>
    </g>
  </g>
</svg>
