<svg xmlns="http://www.w3.org/2000/svg" xmlns:xlink="http://www.w3.org/1999/xlink" width="1010.631" height="962.554" viewBox="0 0 1010.631 962.554">
  <defs>
    <linearGradient id="linear-gradient" x1="0.5" y1="1" x2="0.5" gradientUnits="objectBoundingBox">
      <stop offset="0" stop-color="gray" stop-opacity="0.251"/>
      <stop offset="0.54" stop-color="gray" stop-opacity="0.122"/>
      <stop offset="1" stop-color="gray" stop-opacity="0.102"/>
    </linearGradient>
    <linearGradient id="linear-gradient-2" x1="0.5" y1="1" x2="0.5" xlink:href="#linear-gradient"/>
  </defs>
  <g id="Group_115" data-name="Group 115" transform="translate(158.802 -36.41)">
    <g id="undraw_security_o890" transform="translate(119.56 174.997)">
      <path id="Path_385" data-name="Path 385" d="M638.739,321.635c-13.573,28-41.134,46.723-69.7,59.07-38.452,16.628-80.8,23.224-122.559,20.434q-10.978-.73-21.89-2.335a276.089,276.089,0,0,1-73.19-21.313q-10.084-4.542-19.76-9.916a252.79,252.79,0,0,1-30.886-20.2q-3.693-2.82-7.285-5.783c-1.66-1.369-3.305-2.769-4.976-4.128a62.794,62.794,0,0,0-11.2-7.627,40.01,40.01,0,0,0-3.75-1.655c-12.812-4.874-27.586-3.034-40.925.766-10.146,2.891-20.036,6.851-30.171,9.676a100.125,100.125,0,0,1-13.747,2.922,73.159,73.159,0,0,1-30.886-2.713l-.853-.266q-2.146-.674-4.255-1.476l-.853-.327q-2.043-.787-4-1.691l-.853-.388q-2.043-.95-4-2.008c-.47-.245-.935-.511-1.395-.761a83.612,83.612,0,0,1-20.005-15.576c-.169-.169-.327-.342-.511-.511-.812-.879-1.609-1.773-2.381-2.687-.286-.337-.572-.674-.853-1.022q-1.374-1.676-2.651-3.428c-.128-.169-.25-.342-.373-.511a73.865,73.865,0,0,1-8.613-15.576c-.072-.169-.138-.342-.2-.511q-1.022-2.631-1.865-5.349c-.23-.756-.45-1.533-.644-2.289-.066-.225-.128-.455-.184-.679-2.82-11.1-3.142-22.641-3.142-34.115v-4.01c.082-18.559.368-37.435,3.106-55.739a2.327,2.327,0,0,1,.056-.378,174.079,174.079,0,0,1,3.734-18.3,134.992,134.992,0,0,1,6.289-18.544c6.3-14.815,15.459-28.3,25.63-40.792,25.619-31.443,59.218-57.839,98.544-67.719C279.924,33.543,327.02,43.74,361.2,70.953c10.422,8.3,19.785,18.12,31.489,24.48,10.217,5.538,22.176,7.831,33.119,3.474,9.042-3.6,14.927-5.39,25.083-4.843a210.248,210.248,0,0,1,61.487,12.879c.8.291,1.594.593,2.386.894,51.448,19.683,95.673,58.789,118.662,109.042q.914,1.992,1.773,4.015C648.905,252.91,653.86,290.432,638.739,321.635Z" transform="translate(-62.57 -40.04)" fill="#6c63ff" opacity="0.1"/>
      <ellipse id="Ellipse_32" data-name="Ellipse 32" cx="45.098" cy="7.244" rx="45.098" ry="7.244" transform="translate(16.573 365.074)" fill="#6c63ff" opacity="0.1"/>
      <ellipse id="Ellipse_33" data-name="Ellipse 33" cx="79.964" cy="7.765" rx="79.964" ry="7.765" transform="translate(386.284 403.327)" fill="#6c63ff" opacity="0.1"/>
      <rect id="Rectangle_724" data-name="Rectangle 724" width="485.481" height="275.009" rx="12.49" transform="translate(59.546 55.046)" fill="url(#linear-gradient)"/>
      <rect id="Rectangle_725" data-name="Rectangle 725" width="483.995" height="270.227" rx="12.49" transform="translate(60.317 58.913)" fill="#fff"/>
      <rect id="Rectangle_726" data-name="Rectangle 726" width="483.995" height="270.227" rx="12.49" transform="translate(60.317 58.913)" fill="#fff"/>
      <rect id="Rectangle_727" data-name="Rectangle 727" width="483.995" height="270.227" rx="12.49" transform="translate(60.317 58.913)" fill="#fff" opacity="0.04"/>
      <path id="Path_386" data-name="Path 386" d="M626.158,149.29H147.077a2.457,2.457,0,0,0-2.457,2.457v10.386H628.594V151.747a2.457,2.457,0,0,0-2.437-2.457Z" transform="translate(-84.303 -93.478)" fill="#5a5773"/>
      <g id="buttons" transform="translate(66.662 58.913)">
        <circle id="Ellipse_34" data-name="Ellipse 34" cx="3.321" cy="3.321" r="3.321" fill="#fff"/>
        <circle id="Ellipse_35" data-name="Ellipse 35" cx="3.321" cy="3.321" r="3.321" transform="translate(8.94)" fill="#fff"/>
        <circle id="Ellipse_36" data-name="Ellipse 36" cx="3.321" cy="3.321" r="3.321" transform="translate(17.88)" fill="#fff"/>
      </g>
      <rect id="Rectangle_728" data-name="Rectangle 728" width="129.885" height="11.024" transform="translate(100.179 92.809)" fill="#6c63ff" opacity="0.2"/>
      <rect id="Rectangle_729" data-name="Rectangle 729" width="404.271" height="169.584" transform="translate(100.179 137.013)" fill="#5a5773" opacity="0.1"/>
      <path id="Path_387" data-name="Path 387" d="M608.789,290.19h-6.922V276.744a27.646,27.646,0,1,0-55.29-.373V290.19H539.67a11.556,11.556,0,0,0-11.52,11.52v55.285a11.556,11.556,0,0,0,11.52,11.52h69.119a11.55,11.55,0,0,0,11.515-11.52V301.709a11.55,11.55,0,0,0-11.515-11.52Zm-30.524,35.939v19.8a4.133,4.133,0,0,1-3.831,4.148,4.041,4.041,0,0,1-4.23-4.036V326.118a9.2,9.2,0,1,1,8.061,0Zm15.55-35.939H554.638V276.371a19.581,19.581,0,1,1,39.162,0Z" transform="translate(-271.904 -142.117)" opacity="0.1"/>
      <path id="Path_388" data-name="Path 388" d="M608.789,288.19h-6.922V274.744a27.646,27.646,0,1,0-55.29-.373V288.19H539.67a11.556,11.556,0,0,0-11.52,11.52v55.285a11.556,11.556,0,0,0,11.52,11.52h69.119a11.55,11.55,0,0,0,11.515-11.52V299.709A11.55,11.55,0,0,0,608.789,288.19Zm-30.524,35.939v19.8a4.133,4.133,0,0,1-3.831,4.148,4.041,4.041,0,0,1-4.23-4.036V324.118a9.2,9.2,0,1,1,8.061,0Zm15.55-35.939H554.638V274.371a19.581,19.581,0,1,1,39.162,0Z" transform="translate(-271.904 -141.138)" fill="#5ccae8"/>
      <rect id="Rectangle_730" data-name="Rectangle 730" width="40.92" height="9.66" transform="translate(463.531 120.691)" fill="#5a5773" opacity="0.1"/>
      <path id="Path_389" data-name="Path 389" d="M946.408,575.385a14.542,14.542,0,0,0-1.369-3.888l-6.13-9.154h.036s-.966-4.6,0-6.856-3.443-7.811-3.443-7.811a3.294,3.294,0,0,1,.863-3.111c1.4-1.717-.863-6.743-.863-6.743s-1.073-10.5-1.18-12.1-.971-10.493-.971-10.493l-2.043-18.845-3.637-49.946-.066-.935c.45-.22.69-.358.69-.358l-.725-27.617.628-.567c5.487-4.966,18.141-16.46,18.013-16.71s-1.533-19.193-1.7-23.934a28.523,28.523,0,0,0-2.176-9.8c-.317-.628-1.231-4.771-1.609-6.524-.1-.48-.169-.782-.169-.782s-3.709-7.07-3.387-10.284.966-5.619-6.943-6.743c0,0-6.641-.991-10.6-3.693a30.139,30.139,0,0,0-7.591-3.8s-2.217-4.087-3.76-2.7a21.452,21.452,0,0,1-1.456-4.552l-.046-.286a15.055,15.055,0,0,0,5.946-8.511c.051-.194.092-.393.138-.587a1.661,1.661,0,0,0,.475.087c1.344,0,2.171-1.5,3.428-1.972.511-.2,1.139-.23,1.533-.633a1.5,1.5,0,0,0,.337-1.129,2.3,2.3,0,0,0,0-.419q0-.074,0-.148v.051c-.342-1.86-1.783-3.51-1.624-5.4.153-1.778,1.716-3.341,1.589-5.073a2.761,2.761,0,0,0-.036-.409v.061a4.374,4.374,0,0,0-1.022-1.808,5.8,5.8,0,0,0-2.1-1.768c-.71-.312-1.533-.383-2.2-.756-1.951-1.063-1.946-3.831-3.106-5.722a5.063,5.063,0,0,0-4.736-2.345c-1.451.143-2.764.914-4.2,1.165a10.98,10.98,0,0,1-5.819-1.022,16.018,16.018,0,0,0-5.742-1.533c-2,0-4.158,1.022-4.761,2.907-.322,1.022-.163,2.12-.409,3.157-.439,1.829-2.043,3.137-3.7,4.046-1.022.567-2.238,1.216-2.554,2.289V301.6a1.961,1.961,0,0,0-.051.261,1.908,1.908,0,0,0,0,.342,6.441,6.441,0,0,0,.649,2.135,5.89,5.89,0,0,1-.031,4.117c-.378.971-1.022,1.824-1.39,2.789a5.491,5.491,0,0,0-.337,1.4v-.082a5.618,5.618,0,0,0,0,.654,4.6,4.6,0,0,0,.511,2.146,3.852,3.852,0,0,0,2.294,1.926c1.022.235,1.66-.766,2.738-.511a4.307,4.307,0,0,1,.567.179c.036.23.072.46.112.685a15.015,15.015,0,0,0,5.18,8.771,3.311,3.311,0,0,0,.056.373h0a34.3,34.3,0,0,1,.424,6.161s-1.609-2.355-3.816,2.192c0,0-5.757,3.321-7.745,3.7s-9.042,2.835-9.042,2.835a6.222,6.222,0,0,1-3.658,1.18c-2.2,0-4.031,4.817-3.765,7.438s-.158,4.552-2.207,4.659-.93,4.261-.914,4.332l-.189.894c-.4,1.829-1.267,5.752-1.573,6.365a28.609,28.609,0,0,0-2.181,9.8c-.158,4.741-1.533,23.612-1.691,23.934-.107.209,8.562,8.133,14.656,13.671l.884.8-2.8,26.2a6.994,6.994,0,0,0,2.881,5.109c0,.306,0,.618-.031.94-.123,3.065-.368,6.774-.858,7.745-.858,1.716-.644,10.922-.644,10.922s-.863,18.738-1.936,20.776a14.174,14.174,0,0,0-.971,7.152c.322.838-1.078,23.341-1.078,23.341l-1.073,10.069s.322,9.635-.649,9.849-1.507,6.856-1.507,6.856-3.438,4.71-1.936,6.421-.22,2.467-.378,2.891-3.28,2.043-1.022,8.031a1.776,1.776,0,0,0,.072.174c-2.115,2.937-8.817,12.414-8.409,13.854a3.8,3.8,0,0,0,1.788,2.146c1.578.945,4.286,1.384,8.593,0,7.152-2.3,6.641-3.964,6.641-3.964a3.035,3.035,0,0,1,3.014-2.891c2.958-.215,5.165-2.943,5.165-2.943l-.347-1.292-.475-1.788c.056-.511.419-1.4,2.043-1.9,2.478-.751,1.829-5.461,1.829-5.461s-.215-4.925.858-5.568.649-8.782.649-8.782a60.341,60.341,0,0,1,2.9-9.854c1.716-3.964,3.77-27.515,3.77-27.515s1.395-11.566,2.687-14.886,2.478-12.633,2.478-12.633,7.964-15.423,8.066-18.851c0,0,1.022-3.213,2.043.322s3.893,11.995,3.893,11.995l2.794,10.386,3.336,15.525,2.156,13.068s-.327,4.925.511,6.641,2.043,5.67,1.4,6.421,1.287,4.286,1.829,5.032,0,16.6,0,16.6S917.447,558.358,921,560.7a4.342,4.342,0,0,0,.787.409c-.051,1.461-.1,3.418-.036,4.439a1.7,1.7,0,0,0,.112.669c.322.429,3.98,3.321,4.736,3.321s3.438,1.875,3.55,2.784,7.862,4.761,8.96,4.874,6.421,1.068,7.152-.429a2.477,2.477,0,0,0,.148-1.384Zm-19.04-192.96.552.475s.567,4.419.971,5.742a11.089,11.089,0,0,1-.082,3.9,8.968,8.968,0,0,0,.567,2.81c.48.966-.971,3.065-.971,3.065h-1.293l-.4-16.542Zm-38.432-49.389v-.1a.321.321,0,0,0-.015.1ZM869.09,396.713a1.865,1.865,0,0,1-.082-1.364,4.089,4.089,0,0,0,.271-.756,11.708,11.708,0,0,0,.3-2.043.149.149,0,0,0,0-.026,10.8,10.8,0,0,1-.077-3.872c.383-1.257.966-5.742.966-5.742l.368-.312.853-.741a6.068,6.068,0,0,1,.061-.731c.179,3.883.322,8.174.092,8.388-.429.424-1.992,4.6-1.614,4.761a19.546,19.546,0,0,1-.332,3.974A8.138,8.138,0,0,1,869.09,396.713Z" transform="translate(-428.032 -161.953)" fill="url(#linear-gradient-2)"/>
      <path id="Path_390" data-name="Path 390" d="M948.214,367.223v6.355l-13.037,6.554s-12.945-7.831-9.752-10.948c2.043-1.972,1.65-7.387,1.1-11.111h0c-.322-2.166-.695-3.755-.695-3.755s23.254-6.641,19.74-1.6a7.93,7.93,0,0,0-.874,6.028A27.38,27.38,0,0,0,948.214,367.223Z" transform="translate(-465.981 -192.06)" fill="#c37098"/>
      <path id="Path_391" data-name="Path 391" d="M879.561,466.138l-1.681,20.7s-2.518-2.284-5.778-5.257c-6.043-5.512-14.626-13.395-14.524-13.6.158-.322,1.533-19.1,1.681-23.821a28.507,28.507,0,0,1,2.156-9.747,60.57,60.57,0,0,0,1.533-6.34c.123-.567.2-.935.2-.935l2.82-1.134s11.75,13.109,11.75,13.349-.8,10.309-.8,10.309l-.833.725-.363.312s-.562,4.4-.96,5.716a10.264,10.264,0,0,0,.077,3.852h0a11.883,11.883,0,0,1-.291,2.043,4.285,4.285,0,0,1-.271.751,1.875,1.875,0,0,0,.082,1.359,8.213,8.213,0,0,0,.879,1.681Z" transform="translate(-433.042 -228.829)" fill="#3f3d56"/>
      <path id="Path_392" data-name="Path 392" d="M1018.967,467.992c.123.25-12.409,11.688-17.839,16.628l-2.462,2.232L997,466.153h4.317s1.441-2.079.96-3.04a8.883,8.883,0,0,1-.557-2.794,11.137,11.137,0,0,0,.077-3.877c-.4-1.323-.96-5.716-.96-5.716l-.547-.47-.649-.567s-.8-10.069-.8-10.309,11.75-13.349,11.75-13.349l2.8,1.119s.061.3.163.782c.378,1.742,1.282,5.865,1.594,6.493a28.5,28.5,0,0,1,2.156,9.747C1017.434,448.891,1018.8,467.67,1018.967,467.992Z" transform="translate(-501.24 -228.843)" fill="#3f3d56"/>
      <path id="Path_393" data-name="Path 393" d="M1016.8,835.425c-.751,1.492-6.023.511-7.111.429s-8.771-3.949-8.879-4.853-2.769-2.769-3.515-2.769-4.368-2.881-4.69-3.305a1.631,1.631,0,0,1-.107-.664c-.112-1.752.107-6.263.107-6.263l15.453.853,7.51,11.295a14.57,14.57,0,0,1,1.359,3.867,2.554,2.554,0,0,1-.128,1.41Z" transform="translate(-499.022 -420.573)" fill="#3f3d56"/>
      <path id="Path_394" data-name="Path 394" d="M1016.8,835.425c-.751,1.492-6.023.511-7.111.429s-8.771-3.949-8.879-4.853-2.769-2.769-3.515-2.769-4.368-2.881-4.69-3.305a1.631,1.631,0,0,1-.107-.664c-.112-1.752.107-6.263.107-6.263l15.453.853,7.51,11.295a14.57,14.57,0,0,1,1.359,3.867,2.554,2.554,0,0,1-.128,1.41Z" transform="translate(-499.022 -420.573)" opacity="0.1"/>
      <path id="Path_395" data-name="Path 395" d="M1016.83,841.422c-.751,1.492-6.023.511-7.111.429s-8.771-3.949-8.879-4.853-2.769-2.769-3.515-2.769-4.368-2.881-4.69-3.305a1.631,1.631,0,0,1-.107-.664l5.006,3.167s3.2,2.043,4.051,3.254,7.576,3.729,8.133,3.78c.414.041,4.827-.807,7.239-.45a2.554,2.554,0,0,1-.128,1.41Z" transform="translate(-499.051 -426.57)" opacity="0.1"/>
      <path id="Path_396" data-name="Path 396" d="M873.213,826.635s-2.187,2.718-5.109,2.927a3.009,3.009,0,0,0-2.983,2.876s.511,1.655-6.554,3.949c-4.266,1.374-6.948.94-8.511,0a3.8,3.8,0,0,1-1.773-2.135c-.48-1.7,8.95-14.651,8.95-14.651l8.582-.511,6.13,2.769.94,3.51Z" transform="translate(-428.487 -421.106)" fill="#3f3d56"/>
      <path id="Path_397" data-name="Path 397" d="M873.213,826.635s-2.187,2.718-5.109,2.927a3.009,3.009,0,0,0-2.983,2.876s.511,1.655-6.554,3.949c-4.266,1.374-6.948.94-8.511,0a3.8,3.8,0,0,1-1.773-2.135c-.48-1.7,8.95-14.651,8.95-14.651l8.582-.511,6.13,2.769.94,3.51Z" transform="translate(-428.487 -421.106)" opacity="0.1"/>
      <path id="Path_398" data-name="Path 398" d="M874.927,832.627s-2.186,2.718-5.109,2.927a3.009,3.009,0,0,0-2.983,2.876s.511,1.655-6.554,3.949c-4.266,1.374-6.948.94-8.511,0,4.02-.419,12.9-2.958,13.793-3.837,1.068-1.068,2.4-4,3.305-4.051.628-.041,3.821-1.962,5.737-3.152Z" transform="translate(-430.201 -427.098)" fill="none"/>
      <path id="Path_399" data-name="Path 399" d="M874.927,832.627s-2.186,2.718-5.109,2.927a3.009,3.009,0,0,0-2.983,2.876s.511,1.655-6.554,3.949c-4.266,1.374-6.948.94-8.511,0,4.02-.419,12.9-2.958,13.793-3.837,1.068-1.068,2.4-4,3.305-4.051.628-.041,3.821-1.962,5.737-3.152Z" transform="translate(-430.201 -427.098)" opacity="0.1"/>
      <path id="Path_400" data-name="Path 400" d="M946.118,694.159c-.96,2.238,0,6.82,0,6.82s-14.3.746-17.8-1.6-5.967-15.775-5.967-15.775.511-15.77,0-16.516-2.452-4.261-1.814-5.006-.511-4.69-1.384-6.4-.511-6.605-.511-6.605l-2.135-13.006-3.3-15.448-2.8-10.34s-2.876-8.419-3.852-11.934-2.008-.322-2.008-.322c-.1,3.412-7.99,18.759-7.99,18.759s-1.175,9.272-2.452,12.572-2.667,14.815-2.667,14.815-2.043,23.443-3.729,27.387a60.417,60.417,0,0,0-2.846,9.8s.429,8.1-.639,8.741-.894,5.543-.894,5.543.639,4.685-1.814,5.435-2.043,2.345-2.043,2.345-13.64,2.238-15.877-3.734.853-7.561,1.022-7.99,1.87-1.17.378-2.881,1.916-6.391,1.916-6.391.536-6.605,1.492-6.82.644-9.8.644-9.8l1.063-10.018s1.39-22.381,1.068-23.234a14.193,14.193,0,0,1,.96-7.152c1.068-2.043,1.916-20.679,1.916-20.679s-.215-9.16.639-10.866c.511-.966.725-4.679.848-7.709.092-2.314.112-4.23.112-4.23l11.934-4.475,15.326-4.9,12.894,6.181,18.866,3.622.235,3.254,3.6,49.711,2.043,18.754s.853,8.843.96,10.442,1.17,12.046,1.17,12.046,2.238,5.006.853,6.713a3.236,3.236,0,0,0-.853,3.065S947.079,691.922,946.118,694.159Z" transform="translate(-435.589 -300.513)" fill="#3f3d56"/>
      <path id="Path_401" data-name="Path 401" d="M946.459,352.721a7.93,7.93,0,0,0-.874,6.028,14.988,14.988,0,0,1-18.171-.679h0c-.322-2.166-.695-3.755-.695-3.755S949.974,347.684,946.459,352.721Z" transform="translate(-466.862 -192.061)" opacity="0.1"/>
      <path id="Path_402" data-name="Path 402" d="M947.336,327.438a14.9,14.9,0,1,1-4.363-10.605A14.968,14.968,0,0,1,947.336,327.438Z" transform="translate(-462.304 -173.296)" fill="#c37098"/>
      <path id="Path_403" data-name="Path 403" d="M919.872,350.161l-4.9,87.331L888.327,431.9l-5.277-35.009,5.226-47,3.934.506,6.937.884,6.871.424,7.448-.828Z" transform="translate(-431.724 -171.145)" opacity="0.1"/>
      <path id="Path_404" data-name="Path 404" d="M919.872,351.416l-4.9,87.331-26.641-5.594-5.277-35.009,5.226-46.994,3.934.5,6.937.884,6.871.424,7.448-.828Z" transform="translate(-431.724 -171.762)" fill="#5ccae8"/>
      <path id="Path_405" data-name="Path 405" d="M939.23,396.3l9.594.322-2.7,3.775s.189,7.627,1.471,9.814.9,35.964.9,35.964l-2.554,4.848-4.368-5.436.056-44.6Z" transform="translate(-472.982 -214.301)" fill="#3f3d56"/>
      <path id="Path_406" data-name="Path 406" d="M939.23,396.3l9.594.322-2.7,3.775s.189,7.627,1.471,9.814.9,35.964.9,35.964l-2.554,4.848-4.368-5.436.056-44.6Z" transform="translate(-472.982 -214.301)" opacity="0.1"/>
      <path id="Path_407" data-name="Path 407" d="M933.1,336.86l-8.95,9.911,5.114,5.328,8.475-8.261Z" transform="translate(-451.828 -164.772)" opacity="0.1"/>
      <path id="Path_408" data-name="Path 408" d="M933.1,335.61l-8.95,9.911,5.114,5.328,8.475-8.261Z" transform="translate(-451.828 -164.16)" fill="#5ccae8"/>
      <path id="Path_409" data-name="Path 409" d="M907.256,346.647l-9.062-9.057-.853,4.741,4.158,10.391Z" transform="translate(-438.714 -165.129)" opacity="0.1"/>
      <path id="Path_410" data-name="Path 410" d="M907.881,345.4l-9.057-9.057-.853,4.741,4.158,10.391Z" transform="translate(-439.022 -164.517)" fill="#5ccae8"/>
      <path id="Path_411" data-name="Path 411" d="M947.167,585.637a44.227,44.227,0,0,1-13.793,3.99c-8.792,1.119-14.544-10.069-14.544-10.069l-3.356,4.368c-1.068,4.639-17.318,5.808-23.923,4.051a10.571,10.571,0,0,1-3.791-1.793c.092-2.314.112-4.23.112-4.23l11.934-4.475,15.326-4.9,12.894,6.181,18.866,3.622Z" transform="translate(-447.805 -300.527)" opacity="0.1"/>
      <path id="Path_412" data-name="Path 412" d="M946.833,391.461l-4.9,87.326-26.646-5.594-5.287-35,5.221-47,3.934.511a47.766,47.766,0,0,1-.577,5.109C917.939,399.8,921.883,421,921.883,421s7.494,23.78,10.866,20.353,8.174-21.527,8.174-21.527c3.254-6.713.056-25.543-.184-25.921a7.6,7.6,0,0,1-.306-1.711Z" transform="translate(-458.684 -211.802)" opacity="0.1"/>
      <path id="Path_413" data-name="Path 413" d="M1000.9,514.5l.225,8.557-2.462,2.232L997,504.57h3.678Z" transform="translate(-501.24 -267.261)" opacity="0.1"/>
      <path id="Path_414" data-name="Path 414" d="M891,493.1h0a11.89,11.89,0,0,1-.291,2.043c0-.189,0-.3-.041-.312C890.514,494.791,890.7,494.009,891,493.1Z" transform="translate(-449.2 -261.65)" opacity="0.1"/>
      <path id="Path_415" data-name="Path 415" d="M893.468,502.961l-1.681,20.7s-2.518-2.284-5.778-5.257l.388-3.668s1.374-9.011,1.875-13.456a8.216,8.216,0,0,0,.879,1.681Z" transform="translate(-446.949 -265.651)" opacity="0.1"/>
      <path id="Path_416" data-name="Path 416" d="M899.087,375.85s-1.594-2.345-3.78,2.181c0,0-5.7,3.305-7.663,3.678s-8.94,2.825-8.94,2.825a6.171,6.171,0,0,1-3.622,1.17c-2.187,0-4,4.8-3.734,7.407s-.158,4.531-2.181,4.639-.909,4.312-.909,4.312l13.482,15.453s.853,14.227.429,14.656-1.972,4.6-1.6,4.741-2.043,15.877-2.043,15.877l-3.249,30.534s0,5.109,6.61,6.871,22.871.6,23.918-4.041l3.356-4.373s5.752,11.193,14.544,10.074a42.28,42.28,0,0,0,14.391-4.317l-.96-36.593L936.5,424.57l13.727-22.554s-3.678-7.034-3.356-10.217.955-5.594-6.876-6.713c0,0-6.605-.986-10.5-3.678a30.006,30.006,0,0,0-7.51-3.78s-2.2-4.087-3.724-2.687c0,0,1.533,5.778,1.4,6.641a21.976,21.976,0,0,0,.48,5.17c.24.4,3.438,19.208.184,25.921,0,0-4.776,18.1-8.174,21.527s-10.866-20.352-10.866-20.352-3.944-21.211-3.305-24.194S899.087,375.85,899.087,375.85Z" transform="translate(-438.116 -203.71)" fill="#3f3d56"/>
      <circle id="Ellipse_37" data-name="Ellipse 37" cx="2.345" cy="2.345" r="2.345" transform="translate(470.029 237.309)" fill="#3f3d56"/>
      <circle id="Ellipse_38" data-name="Ellipse 38" cx="2.345" cy="2.345" r="2.345" transform="translate(470.029 248.364)" fill="#3f3d56"/>
      <circle id="Ellipse_39" data-name="Ellipse 39" cx="2.345" cy="2.345" r="2.345" transform="translate(470.029 237.309)" opacity="0.1"/>
      <circle id="Ellipse_40" data-name="Ellipse 40" cx="2.345" cy="2.345" r="2.345" transform="translate(470.029 248.364)" opacity="0.1"/>
      <path id="Path_417" data-name="Path 417" d="M992.47,804.34s9.625.746,10.58,1.492S992.47,804.34,992.47,804.34Z" transform="translate(-499.024 -413.892)" stroke="#6c63ff" stroke-miterlimit="10" stroke-width="1" opacity="0.1"/>
      <path id="Path_418" data-name="Path 418" d="M880.3,789.53s2.043,2.554,1.175,3.729S880.3,789.53,880.3,789.53Z" transform="translate(-444.156 -406.647)" stroke="#6c63ff" stroke-miterlimit="10" stroke-width="1" opacity="0.1"/>
      <path id="Path_419" data-name="Path 419" d="M885.1,806.237s3.729-2.452,5.221-.822S885.1,806.237,885.1,806.237Z" transform="translate(-446.504 -414.144)" stroke="#6c63ff" stroke-miterlimit="10" stroke-width="1" opacity="0.1"/>
      <path id="Path_420" data-name="Path 420" d="M947.345,327.443a14.9,14.9,0,0,1-.48,3.785,1.7,1.7,0,0,1-.991-1.665c.066-.608.47-1.165.383-1.768-.128-.93-1.252-1.308-1.844-2.043-.731-.889-.572-2.181-.511-3.331s-.23-2.554-1.308-2.948c-.322-.117-.674-.128-.986-.261-.848-.358-1.109-1.41-1.676-2.135-1.134-1.461-3.387-1.43-5.109-.736a24.287,24.287,0,0,1-2.3.96,3,3,0,0,1-2.406-.179c-.337-.215-.608-.511-.955-.725-1.155-.695-2.667,0-3.668.894s-1.8,2.095-3.065,2.641c-.567.255-1.267.409-1.533.96a2.012,2.012,0,0,0-.163.955,28.567,28.567,0,0,1-.179,5.952c-.266,1.252-1.144,2.672-2.416,2.519a2.385,2.385,0,0,1-.465-.118,14.968,14.968,0,1,1,29.681-2.769Z" transform="translate(-462.313 -173.301)" opacity="0.1"/>
      <path id="Path_421" data-name="Path 421" d="M911.291,319.346c.383.087.746.286,1.139.337,1.272.153,2.151-1.267,2.416-2.518a27.552,27.552,0,0,0,.184-5.951,1.946,1.946,0,0,1,.158-.955c.291-.552.991-.7,1.532-.96,1.236-.552,2.043-1.727,3.065-2.641s2.508-1.589,3.663-.894c.342.2.618.511.955.725a3.065,3.065,0,0,0,2.411.179c.792-.235,1.533-.649,2.294-.96,1.706-.695,3.964-.72,5.109.731.567.731.828,1.778,1.676,2.135.312.133.664.148.986.266,1.078.4,1.354,1.8,1.308,2.948s-.2,2.442.511,3.331c.593.725,1.716,1.1,1.844,2.043.082.6-.317,1.165-.383,1.768a1.7,1.7,0,0,0,1.6,1.808c1.328,0,2.151-1.487,3.392-1.962a4.031,4.031,0,0,0,1.533-.633,1.691,1.691,0,0,0,.317-1.384c-.25-1.957-1.819-3.658-1.65-5.619.158-1.88,1.9-3.52,1.533-5.369a4.353,4.353,0,0,0-1.022-1.824,5.905,5.905,0,0,0-2.084-1.762,21.448,21.448,0,0,1-2.181-.751c-1.931-1.057-1.926-3.816-3.065-5.7a5,5,0,0,0-4.659-2.319c-1.435.143-2.738.9-4.158,1.16a10.781,10.781,0,0,1-5.762-1.022,15.761,15.761,0,0,0-5.686-1.533c-1.977,0-4.117,1.022-4.72,2.891-.317,1.022-.158,2.115-.4,3.142-.429,1.824-2.043,3.121-3.668,4.026-1.119.623-2.462,1.338-2.6,2.611a5.382,5.382,0,0,0,.639,2.314,5.89,5.89,0,0,1-.031,4.087c-.373.966-1,1.814-1.374,2.774a4.981,4.981,0,0,0,.133,4.087,3.811,3.811,0,0,0,2.335,1.916C909.585,320.107,910.218,319.111,911.291,319.346Z" transform="translate(-456.598 -163.293)" fill="#3f3d56"/>
      <g id="Group_99" data-name="Group 99" transform="translate(449.136 140.838)" opacity="0.1">
        <path id="Path_422" data-name="Path 422" d="M914.845,336.766c-.266,1.252-1.149,2.672-2.421,2.518-.393-.051-.751-.25-1.139-.337-1.068-.235-1.7.766-2.708.511a3.822,3.822,0,0,1-2.34-1.916,4.424,4.424,0,0,1-.475-1.67,4.664,4.664,0,0,0,.475,2.631,3.822,3.822,0,0,0,2.34,1.916c1.022.235,1.64-.766,2.708-.511a11.546,11.546,0,0,0,1.139.332c1.272.158,2.156-1.262,2.421-2.513a14.767,14.767,0,0,0,.245-3.356A12.58,12.58,0,0,1,914.845,336.766Z" transform="translate(-905.733 -324.846)"/>
        <path id="Path_423" data-name="Path 423" d="M908.925,320.092a5.879,5.879,0,0,0-.337-2.467A13.046,13.046,0,0,1,908,316.01a2.336,2.336,0,0,0-.051.261,5.474,5.474,0,0,0,.639,2.314,5.861,5.861,0,0,1,.337,1.507Z" transform="translate(-906.812 -315.866)"/>
        <path id="Path_424" data-name="Path 424" d="M984.782,318.73c-.24,1.451-1.415,2.815-1.533,4.342a3.645,3.645,0,0,0,0,.787C983.505,322.076,985.084,320.5,984.782,318.73Z" transform="translate(-943.639 -317.196)"/>
        <path id="Path_425" data-name="Path 425" d="M979.906,339.83a1.2,1.2,0,0,1-.291.572c-.378.4-1.022.434-1.533.633-1.241.475-2.043,1.977-3.392,1.962a1.711,1.711,0,0,1-1.533-1.185,2.648,2.648,0,0,0-.071.337,1.7,1.7,0,0,0,1.6,1.8c1.333,0,2.151-1.487,3.392-1.957.511-.2,1.134-.23,1.533-.633a1.691,1.691,0,0,0,.317-1.384C979.922,339.917,979.912,339.876,979.906,339.83Z" transform="translate(-938.677 -327.517)"/>
        <path id="Path_426" data-name="Path 426" d="M971.583,335.439c-.128-.93-1.252-1.308-1.844-2.043a2.8,2.8,0,0,1-.562-1.676,3.77,3.77,0,0,0,.562,2.636c.587.715,1.482,1.022,1.768,1.757A1.64,1.64,0,0,0,971.583,335.439Z" transform="translate(-936.76 -323.55)"/>
        <path id="Path_427" data-name="Path 427" d="M947.042,322.268c.041-1.149-.235-2.554-1.313-2.948-.317-.118-.669-.133-.981-.261-.848-.358-1.114-1.41-1.676-2.135-1.139-1.456-3.392-1.43-5.109-.736-.766.312-1.5.725-2.294.96a3,3,0,0,1-2.406-.179c-.337-.215-.613-.511-.955-.725-1.16-.695-2.672,0-3.668.894s-1.8,2.089-3.065,2.641c-.572.255-1.267.409-1.563.96a2.008,2.008,0,0,0-.158.955q0,.3,0,.6A1.452,1.452,0,0,1,924,321.7c.3-.552.991-.7,1.563-.96,1.236-.552,2.043-1.727,3.065-2.641s2.508-1.589,3.668-.894c.342.2.618.511.955.72a2.983,2.983,0,0,0,2.406.179,23.611,23.611,0,0,0,2.294-.955c1.711-.695,3.964-.725,5.109.73.562.725.828,1.778,1.676,2.135.312.133.664.148.981.266a2.452,2.452,0,0,1,1.3,2.278Z" transform="translate(-914.594 -315.727)"/>
      </g>
      <g id="Group_100" data-name="Group 100" transform="translate(456.423 148.713)" opacity="0.1">
        <path id="Path_428" data-name="Path 428" d="M920,335.157a3.918,3.918,0,0,1,2.953-3.663,12.261,12.261,0,0,1,6.886.312c4.848,1.6-.613,7.377-.613,7.377s-3.632,3.576-7.019,1.078a5.307,5.307,0,0,1-1.977-3.065A7.814,7.814,0,0,1,920,335.157Z" transform="translate(-919.997 -331.144)"/>
        <path id="Path_429" data-name="Path 429" d="M960.828,335.158a3.918,3.918,0,0,0-2.958-3.663,12.26,12.26,0,0,0-6.881.312c-4.848,1.6.613,7.377.613,7.377s3.627,3.576,7.019,1.078A5.308,5.308,0,0,0,960.6,337.2,7.817,7.817,0,0,0,960.828,335.158Z" transform="translate(-934.175 -331.144)"/>
        <path id="Path_430" data-name="Path 430" d="M910.5,291.436v.24h8.853v-.286Z" transform="translate(-901.574 -291.244)"/>
        <path id="Path_431" data-name="Path 431" d="M942.765,335.183h.281v-.812a2.326,2.326,0,0,1,2.391,0v.725h.511v-.475h-.25s.1-.986-1.563-.828c0,0-1.338-.128-1.308.72h-.307Z" transform="translate(-931.014 -332.431)"/>
      </g>
      <path id="Path_432" data-name="Path 432" d="M920,334.51a3.918,3.918,0,0,1,2.953-3.663,12.327,12.327,0,0,1,6.886.312c4.848,1.609-.613,7.377-.613,7.377s-3.632,3.576-7.019,1.078a5.277,5.277,0,0,1-1.977-3.065A7.775,7.775,0,0,1,920,334.51Z" transform="translate(-463.574 -182.115)" fill="#5ccae8"/>
      <path id="Path_433" data-name="Path 433" d="M960.828,334.51a3.918,3.918,0,0,0-2.958-3.663,12.306,12.306,0,0,0-6.881.312c-4.848,1.609.613,7.377.613,7.377s3.627,3.576,7.019,1.078a5.277,5.277,0,0,0,1.977-3.065A7.764,7.764,0,0,0,960.828,334.51Z" transform="translate(-477.752 -182.115)" fill="#5ccae8"/>
      <path id="Path_434" data-name="Path 434" d="M910.5,290.806v.245h8.853v-.291Z" transform="translate(-445.151 -142.222)" fill="#6c63ff"/>
      <path id="Path_435" data-name="Path 435" d="M942.765,334.554h.281v-.812a2.34,2.34,0,0,1,2.391,0v.73h.511v-.48h-.25s.1-.981-1.563-.828c0,0-1.338-.123-1.308.72h-.307Z" transform="translate(-474.591 -183.411)" fill="#6c63ff"/>
      <rect id="Rectangle_731" data-name="Rectangle 731" width="2.902" height="65.338" transform="translate(60.22 233.56)" fill="#535461"/>
      <path id="Path_436" data-name="Path 436" d="M148.1,620.519l-.184,2.943-.255,4.153-.107,1.732L147.3,633.5l-.112,1.732-.255,4.153L144,686.628a8,8,0,0,1-7.985,7.51H120.8a8,8,0,0,1-7.98-7.509l-2.943-47.239-.255-4.153-.107-1.732-.25-4.169-.107-1.732-.255-4.153-.184-2.943a4.143,4.143,0,0,1,4.138-4.4h31.106a4.138,4.138,0,0,1,4.133,4.409Z" transform="translate(-66.74 -321.82)" fill="#3f3d56"/>
      <path id="Path_437" data-name="Path 437" d="M121.124,590.46l-.255,4.153h-38.5l-.255-4.153Z" transform="translate(-39.948 -288.819)" fill="#9d9cb5"/>
      <path id="Path_438" data-name="Path 438" d="M121.109,601.98l-.255,4.158H83.081l-.261-4.158Z" transform="translate(-40.296 -294.454)" fill="#9d9cb5"/>
      <path id="Path_439" data-name="Path 439" d="M121.093,613.51l-.255,4.153H83.8l-.261-4.153Z" transform="translate(-40.648 -300.093)" fill="#9d9cb5"/>
      <path id="Path_440" data-name="Path 440" d="M64.7,532.795c16.9,12.225,23.939,31.351,23.939,31.351s-20.368-.7-37.292-12.925S27.41,519.87,27.41,519.87,47.8,520.57,64.7,532.795Z" transform="translate(-26.97 -274.745)" fill="#5ccae8"/>
      <path id="Path_441" data-name="Path 441" d="M27.46,519.87S48.6,531.62,55.378,541.326s33.287,22.825,33.287,22.825" transform="translate(-26.994 -274.745)" fill="none" stroke="#535461" stroke-miterlimit="10" stroke-width="2"/>
      <path id="Path_442" data-name="Path 442" d="M102.341,490.264c9.2,6.641,13.032,17.063,13.032,17.063s-11.086-.378-20.286-7.035S82.06,483.23,82.06,483.23,93.146,483.582,102.341,490.264Z" transform="translate(-53.702 -256.822)" fill="#5ccae8"/>
      <path id="Path_443" data-name="Path 443" d="M82.06,483.18s11.5,6.386,15.193,11.673,18.12,12.424,18.12,12.424" transform="translate(-53.702 -256.798)" fill="none" stroke="#535461" stroke-miterlimit="10" stroke-width="2"/>
      <path id="Path_444" data-name="Path 444" d="M161.182,514.7c-10.57,11.612-12.8,26.784-12.8,26.784s14.9-3.653,25.461-15.264,12.8-26.789,12.8-26.789S171.747,503.083,161.182,514.7Z" transform="translate(-86.142 -264.747)" fill="#5ccae8"/>
      <path id="Path_445" data-name="Path 445" d="M186.643,499.43s-13.762,11.9-17.262,20.107-21,21.967-21,21.967" transform="translate(-86.142 -264.747)" fill="none" stroke="#535461" stroke-miterlimit="10" stroke-width="2"/>
    </g>
    <path id="Path_448" data-name="Path 448" d="M388.825,20c249.793,0,422.729,298.021,422.729,538.018S682.96,859.545,433.167,859.545,40,715.244,40,475.246,139.032,20,388.825,20Z" transform="matrix(-0.259, 0.966, -0.966, -0.259, 881.501, 220.24)" fill="#6c63ff" opacity="0.03"/>
    <path id="Path_449" data-name="Path 449" d="M281.562,20C454.545,20,574.3,226.381,574.3,392.579S485.252,601.388,312.27,601.388,40,501.458,40,335.259,108.58,20,281.562,20Z" transform="translate(855.104 858.682) rotate(171)" fill="#6c63ff" opacity="0.01"/>
  </g>
</svg>
