<svg id="phone-line" xmlns="http://www.w3.org/2000/svg" width="24" height="24" viewBox="0 0 24 24">
  <path id="Path_329" data-name="Path 329" d="M0,0H24V24H0Z" fill="none"/>
  <path id="Path_330" data-name="Path 330" d="M9.745,11.14a11.185,11.185,0,0,0,4.187,4.187l.937-1.312a1.06,1.06,0,0,1,1.371-.314A12.1,12.1,0,0,0,21.1,15.147a1.06,1.06,0,0,1,.976,1.056v4.728a1.06,1.06,0,0,1-.952,1.054A16.433,16.433,0,0,1,3.087,3.952,1.06,1.06,0,0,1,4.141,3H8.869a1.06,1.06,0,0,1,1.056.976,12.1,12.1,0,0,0,1.445,4.856,1.06,1.06,0,0,1-.314,1.371l-1.312.937Zm-2.672-.7L9.086,9.006A14.209,14.209,0,0,1,7.924,5.119H5.13c-.006.176-.01.353-.01.53a14.3,14.3,0,0,0,14.3,14.3c.177,0,.354,0,.53-.011V17.149a14.209,14.209,0,0,1-3.887-1.162L14.629,18a13.183,13.183,0,0,1-1.683-.795l-.061-.035A13.3,13.3,0,0,1,7.9,12.188l-.035-.061a13.183,13.183,0,0,1-.795-1.683Z" transform="translate(-0.536 -0.536)" fill="#797979"/>
</svg>
