<svg xmlns="http://www.w3.org/2000/svg" width="30.684" height="31.377" viewBox="0 0 30.684 31.377">
  <g id="reminder" transform="translate(0.094 0.5)">
    <path id="Path_528" data-name="Path 528" d="M30.09,12.036a5.6,5.6,0,0,0-7.566-5.253A10.851,10.851,0,0,0,16.455,3.11V2.579a2.579,2.579,0,0,0-5.158,0v.682A10.9,10.9,0,0,0,3.272,13.756v8.6H2.985a2.579,2.579,0,0,0,0,5.158h7.841a3.722,3.722,0,0,0,7.245,0h7.268a2.579,2.579,0,0,0,0-5.158h-.287V17.619A5.62,5.62,0,0,0,30.09,12.036Zm-1.146,0a4.465,4.465,0,1,1-4.465-4.465A4.47,4.47,0,0,1,28.944,12.036Zm-16.5-9.457a1.433,1.433,0,1,1,2.866,0v.348a10.251,10.251,0,0,0-2.866.088Zm2.006,26.652a2.557,2.557,0,0,1-2.424-1.719h4.849A2.557,2.557,0,0,1,14.448,29.231ZM25.338,23.5a1.433,1.433,0,1,1,0,2.866H2.985a1.433,1.433,0,1,1,0-2.866h.86a.573.573,0,0,0,.573-.573v-9.17a9.731,9.731,0,0,1,17.038-6.44,5.606,5.606,0,0,0,2.449,10.3v5.307a.573.573,0,0,0,.573.573Zm0,0" fill="#f9822a" stroke="#ff852b" stroke-width="1"/>
    <path id="Path_529" data-name="Path 529" d="M262.607,115.312a.572.572,0,0,0,.405-.168l1.534-1.533a.573.573,0,0,0,.168-.405v-2.191a.573.573,0,0,0-1.146,0v1.954l-1.366,1.365a.573.573,0,0,0,.405.978Zm0,0" transform="translate(-239.662 -101.169)" stroke="#ff852b" stroke-width="1"/>
    <path id="Path_530" data-name="Path 530" d="M165.966,266.238h-1.146a.573.573,0,1,0,0,1.147h1.146a.573.573,0,1,0,0-1.147Zm0,0" transform="translate(-150.084 -243.886)" stroke="#ff852b" stroke-width="1"/>
    <path id="Path_531" data-name="Path 531" d="M75.167,266.238H69.245a.573.573,0,1,0,0,1.147h5.922a.573.573,0,1,0,0-1.147Zm0,0" transform="translate(-62.534 -243.886)" stroke="#ff852b" stroke-width="1"/>
  </g>
</svg>
