<svg id="url" xmlns="http://www.w3.org/2000/svg" width="28.714" height="16.75" viewBox="0 0 28.714 16.75">
  <path id="Path_495" data-name="Path 495" d="M302.257,16.75h-2.692a.9.9,0,0,1,0-1.795h2.692a6.58,6.58,0,0,0,0-13.161h-2.692a.9.9,0,0,1,0-1.795h2.692a8.375,8.375,0,0,1,0,16.75Zm0,0" transform="translate(-281.918)" fill="#211d70"/>
  <path id="Path_496" data-name="Path 496" d="M11.067,16.75H8.375A8.375,8.375,0,0,1,8.375,0h2.692a.9.9,0,1,1,0,1.795H8.375a6.58,6.58,0,0,0,0,13.161h2.692a.9.9,0,1,1,0,1.795Zm0,0" fill="#211d70"/>
  <path id="Path_497" data-name="Path 497" d="M179.342,135.127h-7.777a.9.9,0,1,1,0-1.795h7.777a.9.9,0,1,1,0,1.795Zm0,0" transform="translate(-161.097 -125.854)" fill="#211d70"/>
</svg>
