<svg xmlns="http://www.w3.org/2000/svg" width="35.918" height="40.093" viewBox="0 0 35.918 40.093">
  <path id="Path_8" data-name="Path 8" d="M4,41.093c0-8.435,8.04-15.273,17.959-15.273s17.959,6.838,17.959,15.273h-4.49c0-6.326-6.03-11.455-13.469-11.455S8.49,34.766,8.49,41.093ZM21.959,23.91c-7.442,0-13.469-5.126-13.469-11.455S14.517,1,21.959,1,35.428,6.126,35.428,12.455,29.4,23.91,21.959,23.91Zm0-3.818c4.961,0,8.979-3.417,8.979-7.637S26.92,4.818,21.959,4.818s-8.979,3.417-8.979,7.637S17,20.092,21.959,20.092Z" transform="translate(-4 -1)" fill="#fac92b"/>
</svg>
