<svg id="user-line" xmlns="http://www.w3.org/2000/svg" width="24" height="24" viewBox="0 0 24 24">
  <path id="Path_7" data-name="Path 7" d="M0,0H24V24H0Z" fill="none"/>
  <path id="Path_8" data-name="Path 8" d="M4,22.495a8.434,8.434,0,0,1,8.66-8.189,8.434,8.434,0,0,1,8.66,8.189H19.155a6.326,6.326,0,0,0-6.495-6.141,6.326,6.326,0,0,0-6.495,6.141Zm8.66-9.212A6.324,6.324,0,0,1,6.165,7.141,6.324,6.324,0,0,1,12.66,1a6.324,6.324,0,0,1,6.495,6.141A6.324,6.324,0,0,1,12.66,13.283Zm0-2.047a4.216,4.216,0,0,0,4.33-4.094,4.216,4.216,0,0,0-4.33-4.094A4.216,4.216,0,0,0,8.33,7.141,4.216,4.216,0,0,0,12.66,11.236Z" transform="translate(-0.66 -0.165)" fill="#797979"/>
</svg>
